<svg xmlns="http://www.w3.org/2000/svg" width="800" height="800" viewBox="0 0 800 800">
  <g fill="#61dafb">
    <path d="M400 0C178.3 0 0 178.3 0 400s178.3 400 400 400 400-178.3 400-400S621.7 0 400 0zm0 750C211.5 750 50 588.5 50 400S211.5 50 400 50s350 161.5 350 350-161.5 350-350 350z"/>
    <path d="M400 150c-138.3 0-250 111.7-250 250s111.7 250 250 250 250-111.7 250-250S538.3 150 400 150zm0 450c-110.5 0-200-89.5-200-200s89.5-200 200-200 200 89.5 200 200-89.5 200-200 200z"/>
    <path d="M400 250c-82.8 0-150 67.2-150 150s67.2 150 150 150 150-67.2 150-150-67.2-150-150-150zm0 250c-55.2 0-100-44.8-100-100s44.8-100 100-100 100 44.8 100 100-44.8 100-100 100z"/>
  </g>
</svg>